<svg xmlns="http://www.w3.org/2000/svg" viewBox="0 0 180 180" fill="none">
  <rect width="180" height="180" rx="40" fill="#aa1fef"/>
  <path d="M157.5 37.5c-10.38-3.28-21.94-4.69-32.81-4.69-18.28 0-37.97 3.75-51.56 14.06-13.59-10.31-33.28-14.06-51.56-14.06-10.87 0-22.43 1.41-32.81 4.69v137.31c0 2.34 2.34 4.69 4.69 4.69.94 0 1.41-.47 2.34-.47 10.31-4.22 21.56-8.44 35.16-8.44 18.28 0 37.97 3.75 51.56 14.06 12.66-7.97 26.25-14.06 42.19-14.06 15.47 0 31.41 2.81 44.53 9.84.94.47 1.41.47 2.34.47 2.34 0 4.69-2.34 4.69-4.69V37.5c-5.63-4.22-11.72-7.03-18.75-9.38zm0 126.56c-10.31-3.28-21.56-4.69-32.81-4.69-15.94 0-38.91 6.09-51.56 14.06V50.63c12.66-7.97 35.63-14.06 51.56-14.06 11.25 0 22.5 1.41 32.81 4.69v107.81z" fill="#ffffff"/>
</svg>
